<mxfile host="app.diagrams.net" modified="2023-03-30T18:14:56.736Z" agent="Mozilla/5.0 (Windows NT 10.0; Win64; x64) AppleWebKit/537.36 (KHTML, like Gecko) Chrome/111.0.0.0 Safari/537.36" etag="4YKIgQsxr8G4SH38JSi_" version="21.1.1" type="device">
  <diagram name="Page-1" id="6BJZ_-9e5KDQB8lFmR6G">
    <mxGraphModel dx="656" dy="382" grid="1" gridSize="10" guides="1" tooltips="1" connect="1" arrows="1" fold="1" page="1" pageScale="1" pageWidth="850" pageHeight="1100" math="1" shadow="0">
      <root>
        <mxCell id="0" />
        <mxCell id="1" parent="0" />
        <mxCell id="LqQTvZLwU5_GG4xEILEk-30" style="edgeStyle=orthogonalEdgeStyle;rounded=0;orthogonalLoop=1;jettySize=auto;html=1;exitX=0.5;exitY=0;exitDx=0;exitDy=0;entryX=0;entryY=0.5;entryDx=0;entryDy=0;fontFamily=Times New Roman;fontSize=14;" edge="1" parent="1" source="LqQTvZLwU5_GG4xEILEk-1" target="LqQTvZLwU5_GG4xEILEk-25">
          <mxGeometry relative="1" as="geometry" />
        </mxCell>
        <mxCell id="LqQTvZLwU5_GG4xEILEk-1" value="17" style="rounded=0;whiteSpace=wrap;html=1;fillColor=none;fontFamily=Times New Roman;fontSize=14;" vertex="1" parent="1">
          <mxGeometry x="220" y="200" width="40" height="40" as="geometry" />
        </mxCell>
        <mxCell id="LqQTvZLwU5_GG4xEILEk-31" style="edgeStyle=orthogonalEdgeStyle;rounded=0;orthogonalLoop=1;jettySize=auto;html=1;exitX=0.5;exitY=0;exitDx=0;exitDy=0;entryX=0;entryY=0.75;entryDx=0;entryDy=0;fontFamily=Times New Roman;fontSize=14;" edge="1" parent="1" source="LqQTvZLwU5_GG4xEILEk-2" target="LqQTvZLwU5_GG4xEILEk-25">
          <mxGeometry relative="1" as="geometry" />
        </mxCell>
        <mxCell id="LqQTvZLwU5_GG4xEILEk-2" value="16" style="rounded=0;whiteSpace=wrap;html=1;fillColor=none;fontFamily=Times New Roman;fontSize=14;" vertex="1" parent="1">
          <mxGeometry x="260" y="200" width="40" height="40" as="geometry" />
        </mxCell>
        <mxCell id="LqQTvZLwU5_GG4xEILEk-3" value="15" style="rounded=0;whiteSpace=wrap;html=1;fillColor=none;fontFamily=Times New Roman;fontSize=14;" vertex="1" parent="1">
          <mxGeometry x="300" y="200" width="40" height="40" as="geometry" />
        </mxCell>
        <mxCell id="LqQTvZLwU5_GG4xEILEk-4" value="14" style="rounded=0;whiteSpace=wrap;html=1;fillColor=none;fontFamily=Times New Roman;fontSize=14;" vertex="1" parent="1">
          <mxGeometry x="340" y="200" width="40" height="40" as="geometry" />
        </mxCell>
        <mxCell id="LqQTvZLwU5_GG4xEILEk-32" style="edgeStyle=orthogonalEdgeStyle;rounded=0;orthogonalLoop=1;jettySize=auto;html=1;exitX=0.5;exitY=0;exitDx=0;exitDy=0;entryX=0.5;entryY=1;entryDx=0;entryDy=0;fontFamily=Times New Roman;fontSize=14;" edge="1" parent="1" source="LqQTvZLwU5_GG4xEILEk-5" target="LqQTvZLwU5_GG4xEILEk-25">
          <mxGeometry relative="1" as="geometry" />
        </mxCell>
        <mxCell id="LqQTvZLwU5_GG4xEILEk-5" value="13" style="rounded=0;whiteSpace=wrap;html=1;fillColor=none;fontFamily=Times New Roman;fontSize=14;" vertex="1" parent="1">
          <mxGeometry x="380" y="200" width="40" height="40" as="geometry" />
        </mxCell>
        <mxCell id="LqQTvZLwU5_GG4xEILEk-6" value="12" style="rounded=0;whiteSpace=wrap;html=1;fillColor=none;fontFamily=Times New Roman;fontSize=14;" vertex="1" parent="1">
          <mxGeometry x="420" y="200" width="40" height="40" as="geometry" />
        </mxCell>
        <mxCell id="LqQTvZLwU5_GG4xEILEk-7" value="11" style="rounded=0;whiteSpace=wrap;html=1;fillColor=none;fontFamily=Times New Roman;fontSize=14;" vertex="1" parent="1">
          <mxGeometry x="460" y="200" width="40" height="40" as="geometry" />
        </mxCell>
        <mxCell id="LqQTvZLwU5_GG4xEILEk-8" value="10" style="rounded=0;whiteSpace=wrap;html=1;fillColor=none;fontFamily=Times New Roman;fontSize=14;" vertex="1" parent="1">
          <mxGeometry x="500" y="200" width="40" height="40" as="geometry" />
        </mxCell>
        <mxCell id="LqQTvZLwU5_GG4xEILEk-9" value="9" style="rounded=0;whiteSpace=wrap;html=1;fillColor=none;fontFamily=Times New Roman;fontSize=14;" vertex="1" parent="1">
          <mxGeometry x="540" y="200" width="40" height="40" as="geometry" />
        </mxCell>
        <mxCell id="LqQTvZLwU5_GG4xEILEk-10" value="8" style="rounded=0;whiteSpace=wrap;html=1;fillColor=none;fontFamily=Times New Roman;fontSize=14;" vertex="1" parent="1">
          <mxGeometry x="580" y="200" width="40" height="40" as="geometry" />
        </mxCell>
        <mxCell id="LqQTvZLwU5_GG4xEILEk-11" value="7" style="rounded=0;whiteSpace=wrap;html=1;fillColor=none;fontFamily=Times New Roman;fontSize=14;" vertex="1" parent="1">
          <mxGeometry x="620" y="200" width="40" height="40" as="geometry" />
        </mxCell>
        <mxCell id="LqQTvZLwU5_GG4xEILEk-12" value="6" style="rounded=0;whiteSpace=wrap;html=1;fillColor=none;fontFamily=Times New Roman;fontSize=14;" vertex="1" parent="1">
          <mxGeometry x="660" y="200" width="40" height="40" as="geometry" />
        </mxCell>
        <mxCell id="LqQTvZLwU5_GG4xEILEk-13" value="5" style="rounded=0;whiteSpace=wrap;html=1;fillColor=none;fontFamily=Times New Roman;fontSize=14;" vertex="1" parent="1">
          <mxGeometry x="700" y="200" width="40" height="40" as="geometry" />
        </mxCell>
        <mxCell id="LqQTvZLwU5_GG4xEILEk-14" value="4" style="rounded=0;whiteSpace=wrap;html=1;fillColor=none;fontFamily=Times New Roman;fontSize=14;" vertex="1" parent="1">
          <mxGeometry x="740" y="200" width="40" height="40" as="geometry" />
        </mxCell>
        <mxCell id="LqQTvZLwU5_GG4xEILEk-15" value="3" style="rounded=0;whiteSpace=wrap;html=1;fillColor=none;fontFamily=Times New Roman;fontSize=14;" vertex="1" parent="1">
          <mxGeometry x="780" y="200" width="40" height="40" as="geometry" />
        </mxCell>
        <mxCell id="LqQTvZLwU5_GG4xEILEk-16" value="2" style="rounded=0;whiteSpace=wrap;html=1;fillColor=none;fontFamily=Times New Roman;fontSize=14;" vertex="1" parent="1">
          <mxGeometry x="820" y="200" width="40" height="40" as="geometry" />
        </mxCell>
        <mxCell id="LqQTvZLwU5_GG4xEILEk-29" style="edgeStyle=orthogonalEdgeStyle;rounded=0;orthogonalLoop=1;jettySize=auto;html=1;exitX=0.5;exitY=0;exitDx=0;exitDy=0;entryX=0;entryY=0.25;entryDx=0;entryDy=0;fontFamily=Times New Roman;fontSize=14;" edge="1" parent="1" source="LqQTvZLwU5_GG4xEILEk-17" target="LqQTvZLwU5_GG4xEILEk-25">
          <mxGeometry relative="1" as="geometry" />
        </mxCell>
        <mxCell id="LqQTvZLwU5_GG4xEILEk-17" value="18" style="rounded=0;whiteSpace=wrap;html=1;fillColor=none;fontFamily=Times New Roman;fontSize=14;" vertex="1" parent="1">
          <mxGeometry x="180" y="200" width="40" height="40" as="geometry" />
        </mxCell>
        <mxCell id="LqQTvZLwU5_GG4xEILEk-20" value="1" style="rounded=0;whiteSpace=wrap;html=1;fillColor=none;fontFamily=Times New Roman;fontSize=14;" vertex="1" parent="1">
          <mxGeometry x="860" y="200" width="40" height="40" as="geometry" />
        </mxCell>
        <mxCell id="LqQTvZLwU5_GG4xEILEk-21" value="0" style="rounded=0;whiteSpace=wrap;html=1;fillColor=none;fontFamily=Times New Roman;fontSize=14;" vertex="1" parent="1">
          <mxGeometry x="900" y="200" width="40" height="40" as="geometry" />
        </mxCell>
        <mxCell id="LqQTvZLwU5_GG4xEILEk-33" style="edgeStyle=orthogonalEdgeStyle;rounded=0;orthogonalLoop=1;jettySize=auto;html=1;exitX=1;exitY=0.5;exitDx=0;exitDy=0;entryX=1;entryY=0.5;entryDx=0;entryDy=0;fontFamily=Times New Roman;fontSize=14;" edge="1" parent="1" source="LqQTvZLwU5_GG4xEILEk-25" target="LqQTvZLwU5_GG4xEILEk-73">
          <mxGeometry relative="1" as="geometry" />
        </mxCell>
        <mxCell id="LqQTvZLwU5_GG4xEILEk-25" value="XOR" style="rounded=0;whiteSpace=wrap;html=1;fontFamily=Times New Roman;fontSize=14;fillColor=none;" vertex="1" parent="1">
          <mxGeometry x="540" y="80" width="40" height="80" as="geometry" />
        </mxCell>
        <mxCell id="LqQTvZLwU5_GG4xEILEk-55" value="17" style="rounded=0;whiteSpace=wrap;html=1;fillColor=none;fontFamily=Times New Roman;fontSize=14;" vertex="1" parent="1">
          <mxGeometry x="220" y="290" width="40" height="40" as="geometry" />
        </mxCell>
        <mxCell id="LqQTvZLwU5_GG4xEILEk-56" value="16" style="rounded=0;whiteSpace=wrap;html=1;fillColor=none;fontFamily=Times New Roman;fontSize=14;" vertex="1" parent="1">
          <mxGeometry x="260" y="290" width="40" height="40" as="geometry" />
        </mxCell>
        <mxCell id="LqQTvZLwU5_GG4xEILEk-57" value="15" style="rounded=0;whiteSpace=wrap;html=1;fillColor=none;fontFamily=Times New Roman;fontSize=14;" vertex="1" parent="1">
          <mxGeometry x="300" y="290" width="40" height="40" as="geometry" />
        </mxCell>
        <mxCell id="LqQTvZLwU5_GG4xEILEk-58" value="14" style="rounded=0;whiteSpace=wrap;html=1;fillColor=none;fontFamily=Times New Roman;fontSize=14;" vertex="1" parent="1">
          <mxGeometry x="340" y="290" width="40" height="40" as="geometry" />
        </mxCell>
        <mxCell id="LqQTvZLwU5_GG4xEILEk-59" value="13" style="rounded=0;whiteSpace=wrap;html=1;fillColor=none;fontFamily=Times New Roman;fontSize=14;" vertex="1" parent="1">
          <mxGeometry x="380" y="290" width="40" height="40" as="geometry" />
        </mxCell>
        <mxCell id="LqQTvZLwU5_GG4xEILEk-60" value="12" style="rounded=0;whiteSpace=wrap;html=1;fillColor=none;fontFamily=Times New Roman;fontSize=14;" vertex="1" parent="1">
          <mxGeometry x="420" y="290" width="40" height="40" as="geometry" />
        </mxCell>
        <mxCell id="LqQTvZLwU5_GG4xEILEk-61" value="11" style="rounded=0;whiteSpace=wrap;html=1;fillColor=none;fontFamily=Times New Roman;fontSize=14;" vertex="1" parent="1">
          <mxGeometry x="460" y="290" width="40" height="40" as="geometry" />
        </mxCell>
        <mxCell id="LqQTvZLwU5_GG4xEILEk-62" value="10" style="rounded=0;whiteSpace=wrap;html=1;fillColor=none;fontFamily=Times New Roman;fontSize=14;" vertex="1" parent="1">
          <mxGeometry x="500" y="290" width="40" height="40" as="geometry" />
        </mxCell>
        <mxCell id="LqQTvZLwU5_GG4xEILEk-63" value="9" style="rounded=0;whiteSpace=wrap;html=1;fillColor=none;fontFamily=Times New Roman;fontSize=14;" vertex="1" parent="1">
          <mxGeometry x="540" y="290" width="40" height="40" as="geometry" />
        </mxCell>
        <mxCell id="LqQTvZLwU5_GG4xEILEk-64" value="8" style="rounded=0;whiteSpace=wrap;html=1;fillColor=none;fontFamily=Times New Roman;fontSize=14;" vertex="1" parent="1">
          <mxGeometry x="580" y="290" width="40" height="40" as="geometry" />
        </mxCell>
        <mxCell id="LqQTvZLwU5_GG4xEILEk-65" value="7" style="rounded=0;whiteSpace=wrap;html=1;fillColor=none;fontFamily=Times New Roman;fontSize=14;" vertex="1" parent="1">
          <mxGeometry x="620" y="290" width="40" height="40" as="geometry" />
        </mxCell>
        <mxCell id="LqQTvZLwU5_GG4xEILEk-66" value="6" style="rounded=0;whiteSpace=wrap;html=1;fillColor=none;fontFamily=Times New Roman;fontSize=14;" vertex="1" parent="1">
          <mxGeometry x="660" y="290" width="40" height="40" as="geometry" />
        </mxCell>
        <mxCell id="LqQTvZLwU5_GG4xEILEk-67" value="5" style="rounded=0;whiteSpace=wrap;html=1;fillColor=none;fontFamily=Times New Roman;fontSize=14;" vertex="1" parent="1">
          <mxGeometry x="700" y="290" width="40" height="40" as="geometry" />
        </mxCell>
        <mxCell id="LqQTvZLwU5_GG4xEILEk-68" value="4" style="rounded=0;whiteSpace=wrap;html=1;fillColor=none;fontFamily=Times New Roman;fontSize=14;" vertex="1" parent="1">
          <mxGeometry x="740" y="290" width="40" height="40" as="geometry" />
        </mxCell>
        <mxCell id="LqQTvZLwU5_GG4xEILEk-69" value="3" style="rounded=0;whiteSpace=wrap;html=1;fillColor=none;fontFamily=Times New Roman;fontSize=14;" vertex="1" parent="1">
          <mxGeometry x="780" y="290" width="40" height="40" as="geometry" />
        </mxCell>
        <mxCell id="LqQTvZLwU5_GG4xEILEk-70" value="2" style="rounded=0;whiteSpace=wrap;html=1;fillColor=none;fontFamily=Times New Roman;fontSize=14;" vertex="1" parent="1">
          <mxGeometry x="820" y="290" width="40" height="40" as="geometry" />
        </mxCell>
        <mxCell id="LqQTvZLwU5_GG4xEILEk-71" value="18" style="rounded=0;whiteSpace=wrap;html=1;fillColor=none;fontFamily=Times New Roman;fontSize=14;" vertex="1" parent="1">
          <mxGeometry x="180" y="290" width="40" height="40" as="geometry" />
        </mxCell>
        <mxCell id="LqQTvZLwU5_GG4xEILEk-72" value="1" style="rounded=0;whiteSpace=wrap;html=1;fillColor=none;fontFamily=Times New Roman;fontSize=14;" vertex="1" parent="1">
          <mxGeometry x="860" y="290" width="40" height="40" as="geometry" />
        </mxCell>
        <mxCell id="LqQTvZLwU5_GG4xEILEk-73" value="0" style="rounded=0;whiteSpace=wrap;html=1;fillColor=none;fontFamily=Times New Roman;fontSize=14;" vertex="1" parent="1">
          <mxGeometry x="900" y="290" width="40" height="40" as="geometry" />
        </mxCell>
        <mxCell id="LqQTvZLwU5_GG4xEILEk-79" value="" style="endArrow=classic;html=1;rounded=0;exitX=0.5;exitY=1;exitDx=0;exitDy=0;entryX=0.5;entryY=0;entryDx=0;entryDy=0;" edge="1" parent="1" source="LqQTvZLwU5_GG4xEILEk-21" target="LqQTvZLwU5_GG4xEILEk-72">
          <mxGeometry width="50" height="50" relative="1" as="geometry">
            <mxPoint x="1070" y="320" as="sourcePoint" />
            <mxPoint x="1120" y="270" as="targetPoint" />
          </mxGeometry>
        </mxCell>
        <mxCell id="LqQTvZLwU5_GG4xEILEk-80" value="" style="endArrow=classic;html=1;rounded=0;entryX=0.5;entryY=0;entryDx=0;entryDy=0;exitX=0.5;exitY=1;exitDx=0;exitDy=0;" edge="1" parent="1" source="LqQTvZLwU5_GG4xEILEk-20" target="LqQTvZLwU5_GG4xEILEk-70">
          <mxGeometry width="50" height="50" relative="1" as="geometry">
            <mxPoint x="880" y="240" as="sourcePoint" />
            <mxPoint x="840" y="290" as="targetPoint" />
          </mxGeometry>
        </mxCell>
        <mxCell id="LqQTvZLwU5_GG4xEILEk-81" value="" style="endArrow=classic;html=1;rounded=0;entryX=0.5;entryY=0;entryDx=0;entryDy=0;exitX=0.5;exitY=1;exitDx=0;exitDy=0;" edge="1" parent="1" source="LqQTvZLwU5_GG4xEILEk-16" target="LqQTvZLwU5_GG4xEILEk-69">
          <mxGeometry width="50" height="50" relative="1" as="geometry">
            <mxPoint x="890" y="250" as="sourcePoint" />
            <mxPoint x="850" y="300" as="targetPoint" />
          </mxGeometry>
        </mxCell>
        <mxCell id="LqQTvZLwU5_GG4xEILEk-82" value="" style="endArrow=classic;html=1;rounded=0;entryX=0.5;entryY=0;entryDx=0;entryDy=0;exitX=0.5;exitY=1;exitDx=0;exitDy=0;" edge="1" parent="1" source="LqQTvZLwU5_GG4xEILEk-15" target="LqQTvZLwU5_GG4xEILEk-68">
          <mxGeometry width="50" height="50" relative="1" as="geometry">
            <mxPoint x="849" y="255" as="sourcePoint" />
            <mxPoint x="810" y="300" as="targetPoint" />
          </mxGeometry>
        </mxCell>
        <mxCell id="LqQTvZLwU5_GG4xEILEk-83" value="" style="endArrow=classic;html=1;rounded=0;entryX=0.5;entryY=0;entryDx=0;entryDy=0;exitX=0.5;exitY=1;exitDx=0;exitDy=0;" edge="1" parent="1" source="LqQTvZLwU5_GG4xEILEk-14" target="LqQTvZLwU5_GG4xEILEk-67">
          <mxGeometry width="50" height="50" relative="1" as="geometry">
            <mxPoint x="810" y="250" as="sourcePoint" />
            <mxPoint x="770" y="300" as="targetPoint" />
          </mxGeometry>
        </mxCell>
        <mxCell id="LqQTvZLwU5_GG4xEILEk-84" value="" style="endArrow=classic;html=1;rounded=0;entryX=0.5;entryY=0;entryDx=0;entryDy=0;exitX=0.5;exitY=1;exitDx=0;exitDy=0;" edge="1" parent="1" source="LqQTvZLwU5_GG4xEILEk-13" target="LqQTvZLwU5_GG4xEILEk-66">
          <mxGeometry width="50" height="50" relative="1" as="geometry">
            <mxPoint x="770" y="250" as="sourcePoint" />
            <mxPoint x="730" y="300" as="targetPoint" />
          </mxGeometry>
        </mxCell>
        <mxCell id="LqQTvZLwU5_GG4xEILEk-85" value="" style="endArrow=classic;html=1;rounded=0;entryX=0.5;entryY=0;entryDx=0;entryDy=0;exitX=0.5;exitY=1;exitDx=0;exitDy=0;" edge="1" parent="1" source="LqQTvZLwU5_GG4xEILEk-12" target="LqQTvZLwU5_GG4xEILEk-65">
          <mxGeometry width="50" height="50" relative="1" as="geometry">
            <mxPoint x="730" y="250" as="sourcePoint" />
            <mxPoint x="690" y="300" as="targetPoint" />
          </mxGeometry>
        </mxCell>
        <mxCell id="LqQTvZLwU5_GG4xEILEk-86" value="" style="endArrow=classic;html=1;rounded=0;entryX=0.5;entryY=0;entryDx=0;entryDy=0;exitX=0.5;exitY=1;exitDx=0;exitDy=0;" edge="1" parent="1" source="LqQTvZLwU5_GG4xEILEk-11" target="LqQTvZLwU5_GG4xEILEk-64">
          <mxGeometry width="50" height="50" relative="1" as="geometry">
            <mxPoint x="690" y="250" as="sourcePoint" />
            <mxPoint x="650" y="300" as="targetPoint" />
          </mxGeometry>
        </mxCell>
        <mxCell id="LqQTvZLwU5_GG4xEILEk-87" value="" style="endArrow=classic;html=1;rounded=0;entryX=0.5;entryY=0;entryDx=0;entryDy=0;exitX=0.5;exitY=1;exitDx=0;exitDy=0;" edge="1" parent="1" source="LqQTvZLwU5_GG4xEILEk-10" target="LqQTvZLwU5_GG4xEILEk-63">
          <mxGeometry width="50" height="50" relative="1" as="geometry">
            <mxPoint x="650" y="250" as="sourcePoint" />
            <mxPoint x="610" y="300" as="targetPoint" />
          </mxGeometry>
        </mxCell>
        <mxCell id="LqQTvZLwU5_GG4xEILEk-88" value="" style="endArrow=classic;html=1;rounded=0;entryX=0.5;entryY=0;entryDx=0;entryDy=0;exitX=0.5;exitY=1;exitDx=0;exitDy=0;" edge="1" parent="1" source="LqQTvZLwU5_GG4xEILEk-9" target="LqQTvZLwU5_GG4xEILEk-62">
          <mxGeometry width="50" height="50" relative="1" as="geometry">
            <mxPoint x="610" y="250" as="sourcePoint" />
            <mxPoint x="570" y="300" as="targetPoint" />
          </mxGeometry>
        </mxCell>
        <mxCell id="LqQTvZLwU5_GG4xEILEk-89" value="" style="endArrow=classic;html=1;rounded=0;entryX=0.5;entryY=0;entryDx=0;entryDy=0;exitX=0.5;exitY=1;exitDx=0;exitDy=0;" edge="1" parent="1" source="LqQTvZLwU5_GG4xEILEk-8" target="LqQTvZLwU5_GG4xEILEk-61">
          <mxGeometry width="50" height="50" relative="1" as="geometry">
            <mxPoint x="570" y="250" as="sourcePoint" />
            <mxPoint x="530" y="300" as="targetPoint" />
          </mxGeometry>
        </mxCell>
        <mxCell id="LqQTvZLwU5_GG4xEILEk-90" value="" style="endArrow=classic;html=1;rounded=0;entryX=0.5;entryY=0;entryDx=0;entryDy=0;exitX=0.5;exitY=1;exitDx=0;exitDy=0;" edge="1" parent="1" source="LqQTvZLwU5_GG4xEILEk-7" target="LqQTvZLwU5_GG4xEILEk-60">
          <mxGeometry width="50" height="50" relative="1" as="geometry">
            <mxPoint x="530" y="250" as="sourcePoint" />
            <mxPoint x="490" y="300" as="targetPoint" />
          </mxGeometry>
        </mxCell>
        <mxCell id="LqQTvZLwU5_GG4xEILEk-91" value="" style="endArrow=classic;html=1;rounded=0;entryX=0.5;entryY=0;entryDx=0;entryDy=0;exitX=0.5;exitY=1;exitDx=0;exitDy=0;" edge="1" parent="1" source="LqQTvZLwU5_GG4xEILEk-6" target="LqQTvZLwU5_GG4xEILEk-59">
          <mxGeometry width="50" height="50" relative="1" as="geometry">
            <mxPoint x="490" y="250" as="sourcePoint" />
            <mxPoint x="450" y="300" as="targetPoint" />
          </mxGeometry>
        </mxCell>
        <mxCell id="LqQTvZLwU5_GG4xEILEk-92" value="" style="endArrow=classic;html=1;rounded=0;entryX=0.5;entryY=0;entryDx=0;entryDy=0;exitX=0.5;exitY=1;exitDx=0;exitDy=0;" edge="1" parent="1" source="LqQTvZLwU5_GG4xEILEk-5" target="LqQTvZLwU5_GG4xEILEk-58">
          <mxGeometry width="50" height="50" relative="1" as="geometry">
            <mxPoint x="450" y="250" as="sourcePoint" />
            <mxPoint x="410" y="300" as="targetPoint" />
          </mxGeometry>
        </mxCell>
        <mxCell id="LqQTvZLwU5_GG4xEILEk-93" value="" style="endArrow=classic;html=1;rounded=0;entryX=0.5;entryY=0;entryDx=0;entryDy=0;exitX=0.5;exitY=1;exitDx=0;exitDy=0;" edge="1" parent="1" source="LqQTvZLwU5_GG4xEILEk-4" target="LqQTvZLwU5_GG4xEILEk-57">
          <mxGeometry width="50" height="50" relative="1" as="geometry">
            <mxPoint x="410" y="250" as="sourcePoint" />
            <mxPoint x="370" y="300" as="targetPoint" />
          </mxGeometry>
        </mxCell>
        <mxCell id="LqQTvZLwU5_GG4xEILEk-94" value="" style="endArrow=classic;html=1;rounded=0;entryX=0.5;entryY=0;entryDx=0;entryDy=0;exitX=0.5;exitY=1;exitDx=0;exitDy=0;" edge="1" parent="1" source="LqQTvZLwU5_GG4xEILEk-3" target="LqQTvZLwU5_GG4xEILEk-56">
          <mxGeometry width="50" height="50" relative="1" as="geometry">
            <mxPoint x="370" y="250" as="sourcePoint" />
            <mxPoint x="330" y="300" as="targetPoint" />
          </mxGeometry>
        </mxCell>
        <mxCell id="LqQTvZLwU5_GG4xEILEk-95" value="" style="endArrow=classic;html=1;rounded=0;entryX=0.5;entryY=0;entryDx=0;entryDy=0;exitX=0.5;exitY=1;exitDx=0;exitDy=0;" edge="1" parent="1" source="LqQTvZLwU5_GG4xEILEk-2" target="LqQTvZLwU5_GG4xEILEk-55">
          <mxGeometry width="50" height="50" relative="1" as="geometry">
            <mxPoint x="330" y="250" as="sourcePoint" />
            <mxPoint x="290" y="300" as="targetPoint" />
          </mxGeometry>
        </mxCell>
        <mxCell id="LqQTvZLwU5_GG4xEILEk-96" value="" style="endArrow=classic;html=1;rounded=0;entryX=0.5;entryY=0;entryDx=0;entryDy=0;exitX=0.5;exitY=1;exitDx=0;exitDy=0;" edge="1" parent="1" source="LqQTvZLwU5_GG4xEILEk-1" target="LqQTvZLwU5_GG4xEILEk-71">
          <mxGeometry width="50" height="50" relative="1" as="geometry">
            <mxPoint x="290" y="250" as="sourcePoint" />
            <mxPoint x="250" y="300" as="targetPoint" />
          </mxGeometry>
        </mxCell>
        <mxCell id="LqQTvZLwU5_GG4xEILEk-98" value="$$\mathcal{Q}_{prev}$$" style="text;html=1;strokeColor=none;fillColor=none;align=center;verticalAlign=middle;whiteSpace=wrap;rounded=0;fontFamily=Times New Roman;fontSize=17;" vertex="1" parent="1">
          <mxGeometry x="120" y="200" width="60" height="40" as="geometry" />
        </mxCell>
        <mxCell id="LqQTvZLwU5_GG4xEILEk-99" value="$$\mathcal{Q}_{next}$$" style="text;html=1;strokeColor=none;fillColor=none;align=center;verticalAlign=middle;whiteSpace=wrap;rounded=0;fontFamily=Times New Roman;fontSize=17;" vertex="1" parent="1">
          <mxGeometry x="120" y="290" width="60" height="40" as="geometry" />
        </mxCell>
      </root>
    </mxGraphModel>
  </diagram>
</mxfile>
